<svg width="512" height="512" xmlns="http://www.w3.org/2000/svg">
 <g id="Layer_1">
  <title>Layer 1</title>
  <path id="svg_9" d="m732.32501,228.26189l0.745,-1.30375l0.745,1.30375l-1.49,0z" fill="url(#svg_7)"/>
  <path id="svg_28" d="m318.30937,34.0214c-87.81344,0 -158.99903,49.99726 -158.99903,111.67091c-3.33333,35.50769 20.63792,65.20835 55.11899,85.35329l-19.56344,95.89245l58.19127,-80.86606c31.01084,9.55177 29.47727,8.31982 65.25221,11.28278c107.81316,2.96296 159.00097,-49.99756 159.00097,-111.66246s-71.18781,-111.67091 -159.00097,-111.67091zm9.85816,174.8048l-22.36156,0l0,-20.09046l22.36156,0l0,20.09046zm-1.08963,-34.88993l-20.18224,0l-1.99738,-85.96638l23.9972,0l-1.81758,85.96638l0.00001,0z" stroke-width="0" fill="#b5b5b5"/>
  <path transform="translate(-270, 50) scale(535.406, 1) translate(-194.438, -327.056)" id="svg_35" d="m194.38166,327.08398l0,0.03948l0.02247,0l0.03364,0.02763l0.00002,-0.09474l-0.03365,0.02763l-0.02249,0z" stroke-width="0" fill="#b5b5b5"/>
  <path id="svg_37" d="m216.0781,403.31381c0,0 6.26531,-25.7532 0,-34.477c-6.27269,-8.7238 -8.77438,-14.53478 -22.56691,-18.69491s-8.767,-3.33104 -18.79592,-2.90549c-10.02892,0.41821 -18.39004,5.81098 -18.39004,8.71647c0,0 -6.26531,0.41821 -8.767,2.91283c-2.50907,2.49461 -6.68595,14.11657 -6.68595,17.02939s2.08844,22.43683 4.17687,26.58962l-2.48694,0.82909c-2.08844,24.08768 8.35374,27.0005 8.35374,27.0005c3.75623,22.43683 7.51984,12.88394 7.51984,18.69491s-3.76361,3.74192 -3.76361,3.74192s-3.33559,9.13468 -11.68933,12.45838c-8.35374,3.31637 -54.72734,21.17485 -58.49833,24.91677c-3.77099,3.74925 -3.34297,21.18952 -3.34297,21.18952l198.8589,0c0,0 0.4354,-17.44027 -3.33559,-21.18952c-3.77837,-3.74925 -50.15197,-21.6004 -58.50571,-24.91677c-8.35374,-3.3237 -11.68933,-12.45838 -11.68933,-12.45838s-3.76361,2.06906 -3.76361,-3.74192s3.76361,3.74192 7.52722,-18.69491c0,0 10.4348,-2.91283 8.35374,-27.0005l-2.50907,0z" stroke-width="0" fill="#b5b5b5"/>
 </g>
 <defs>
  <linearGradient spreadMethod="pad" y2="0.28594" x2="0.58594" y1="0" x1="0" id="svg_7">
   <stop offset="0.65234" stop-opacity="0.99609" stop-color="#00ff00"/>
   <stop offset="1" stop-opacity="0.99609" stop-color="#00bf5f"/>
  </linearGradient>
 </defs>
</svg>